<svg xmlns="http://www.w3.org/2000/svg" viewBox="0 0 1491.13 230.4"><defs><style>.cls-1{fill:#12214c;}</style></defs><title>Fanslive_logo_blue</title><g id="Layer_2" data-name="Layer 2"><g id="Layer_1-2" data-name="Layer 1"><path class="cls-1" d="M0,11.7A6.85,6.85,0,0,1,1.73,6.75a6.07,6.07,0,0,1,4.13-2H149.4a6.56,6.56,0,0,1,5.17,1.95A7.61,7.61,0,0,1,156.3,12V49.07a7.81,7.81,0,0,1-1.8,4.86,6.24,6.24,0,0,1-5.25,2.32H58v46.5H125.4a7.4,7.4,0,0,1,4.8,1.57q1.95,1.58,2,5V145.2a8.07,8.07,0,0,1-1.73,4.88,5.56,5.56,0,0,1-4.73,2.33H58v68.7q0,6.45-6.9,6.45H5.4Q0,226.8,0,221.25Z"/><path class="cls-1" d="M230.7,10.65a4.43,4.43,0,0,1,1-2,11.19,11.19,0,0,1,4.58-3.38,7.06,7.06,0,0,1,2.55-.52h38.4a6.38,6.38,0,0,1,4.35,1.58,19.35,19.35,0,0,1,2.7,2.77L288,17.7l78.75,203.1q1.2,3-.45,4.88t-5.7,1.88h-43a9.4,9.4,0,0,1-5.33-1.28A8.21,8.21,0,0,1,309.3,222q-3-7.65-5.85-15.22t-5.7-15.23H218.1q-2.85,7.65-5.77,15.23T206.55,222q-2,5.55-7.65,5.55H154.65a7.32,7.32,0,0,1-4.73-1.5q-1.88-1.5-.67-4.5ZM258,74.85q-2.85,7.65-5.78,16.5t-5.77,17.85q-2.85,9-5.77,17.77T234.9,143.4h46Z"/><path class="cls-1" d="M394.2,11.4a7,7,0,0,1,1.65-4.65,6.12,6.12,0,0,1,5-2h49a10.29,10.29,0,0,1,4.35,1,9.52,9.52,0,0,1,3.9,3.6q19,30.75,37.8,60.6t37.95,60.6V10.5a7.33,7.33,0,0,1,2.4-4.2,6.37,6.37,0,0,1,4.2-1.5H583.2a8,8,0,0,1,5.25,1.73,6,6,0,0,1,2.1,4.87V221.7a5.3,5.3,0,0,1-1.8,4.42,7.77,7.77,0,0,1-4.95,1.42H535.95a5,5,0,0,1-3.45-1.35,23.7,23.7,0,0,1-3.15-3.6L489.9,157.35Q470.4,125.1,450.3,92.1V220.95a7.15,7.15,0,0,1-1.5,4.95q-1.5,1.65-5.4,1.65H400.8q-3.45,0-5-1.87a6.87,6.87,0,0,1-1.58-4.58Z"/><path class="cls-1" d="M664.5,155.55q2.55,2.1,6.52,5.63a87.57,87.57,0,0,0,9.07,7,76.12,76.12,0,0,0,15.15,7.95A43.93,43.93,0,0,0,711,178.95a41.06,41.06,0,0,0,12.82-1.72,21.63,21.63,0,0,0,8.18-4.57,16.19,16.19,0,0,0,4.27-6.59,24.55,24.55,0,0,0,1.27-7.95A11.7,11.7,0,0,0,734,149.8a36.6,36.6,0,0,0-8.62-6.52,73.52,73.52,0,0,0-10.65-4.87q-5.55-2-9.6-3.37a219.37,219.37,0,0,1-31.5-13.56,97.2,97.2,0,0,1-22.5-16.19,60.6,60.6,0,0,1-13.5-19.63,61.17,61.17,0,0,1-4.5-23.91,56.42,56.42,0,0,1,5.63-25.33,55.62,55.62,0,0,1,16-19.48A76.41,76.41,0,0,1,679.95,4.42,113.82,113.82,0,0,1,712.8,0,109.5,109.5,0,0,1,739,3.07a99.74,99.74,0,0,1,24.68,9.83q5.1,3,9.67,6.23a101.48,101.48,0,0,1,8,6.22,38.13,38.13,0,0,1,5.48,5.7,8.29,8.29,0,0,1,2,4.65,7,7,0,0,1-1,3.6A22.92,22.92,0,0,1,784.95,43L762,67.5A7.34,7.34,0,0,1,756.9,70a6.53,6.53,0,0,1-3.83-1.2,48.21,48.21,0,0,1-3.83-3l-1.35-1.2q-3-2.55-6.68-5.25a59.59,59.59,0,0,0-7.87-4.87,53.25,53.25,0,0,0-8.85-3.6A32.12,32.12,0,0,0,715,49.5a50,50,0,0,0-9.3.82,26,26,0,0,0-7.65,2.63,14.54,14.54,0,0,0-5.25,4.73,12.55,12.55,0,0,0-1.95,7.13,12.56,12.56,0,0,0,2.1,7.27,20.77,20.77,0,0,0,6.3,5.7,58.08,58.08,0,0,0,10.42,4.95q6.22,2.33,14.48,5,15.9,5.25,29.33,11a98.84,98.84,0,0,1,23.17,13.65,56.43,56.43,0,0,1,15.22,18.82q5.47,11,5.48,26.55a65.66,65.66,0,0,1-6.75,29.92,68.41,68.41,0,0,1-18.53,22.88,86.5,86.5,0,0,1-27.67,14.63,109.87,109.87,0,0,1-34.2,5.17,97,97,0,0,1-33.9-6.17,130.14,130.14,0,0,1-31-16.55,80.08,80.08,0,0,1-10.12-8.58q-4.13-4.21-6.52-6.77l-.45-.45a.84.84,0,0,0-.3-.37,1.07,1.07,0,0,1-.3-.23.84.84,0,0,0-.3-.37,1.1,1.1,0,0,1-.3-.22q-3.45-3.76-3.45-6,0-2.55,3.45-5.72l25.95-24.75q3.15-2.25,5.1-2.25a5.58,5.58,0,0,1,2.85.9A28.08,28.08,0,0,1,664.5,155.55Z"/><path class="cls-1" d="M825,11.25a6.62,6.62,0,0,1,1.8-4.65,6.41,6.41,0,0,1,4.95-1.95h44.4a7,7,0,0,1,4.65,1.8,6.47,6.47,0,0,1,2.25,4.8v163.2h82.5a6.62,6.62,0,0,1,4.65,1.8,6.41,6.41,0,0,1,2,5v39.45a7.16,7.16,0,0,1-1.72,4.65,6.37,6.37,0,0,1-4.87,2.25h-134q-6.6,0-6.6-6.6Z"/><path class="cls-1" d="M1004.69,11.4a7,7,0,0,1,1.65-4.65,6.12,6.12,0,0,1,5-2h44.1a8.45,8.45,0,0,1,4.8,1.8,5.6,5.6,0,0,1,2.55,4.8V220.95q0,6.6-7.35,6.6h-44.1q-6.6,0-6.6-6.6Z"/><path class="cls-1" d="M1169.39,224.4a48.53,48.53,0,0,1-2.92-5.55Q1165.19,216,1164,213L1087,11.55a3.82,3.82,0,0,0-.23-1.35,3.4,3.4,0,0,1-.22-1.2q0-4.2,5.55-4.2h48.3q5.7,0,7.8,5.7L1194,147q6.15-17.1,11.78-34.12t11.1-34.12q5.47-17.1,11.1-34.12t11.77-34.12A8.06,8.06,0,0,1,1248,4.8h47.25q3.45,0,4.88,1.27a4.32,4.32,0,0,1,1.43,3.38,6.08,6.08,0,0,1-.15,1.65v.45L1224,213q-.75,2.1-1.8,4.65a32.08,32.08,0,0,1-2.4,4.72,15,15,0,0,1-3.15,3.67,6.16,6.16,0,0,1-4,1.5h-37Q1170.89,227.55,1169.39,224.4Z"/><path class="cls-1" d="M1325.53,11.7a7.14,7.14,0,0,1,1.72-5,6.27,6.27,0,0,1,4.86-1.87h148.82a6.61,6.61,0,0,1,5.1,1.95,7.4,7.4,0,0,1,1.8,5.23V49.07a7.82,7.82,0,0,1-1.8,4.86,6.24,6.24,0,0,1-5.25,2.32h-97.2v37.2h75a7.89,7.89,0,0,1,4.72,1.35q1.87,1.35,1.88,4.5v32.4a6.22,6.22,0,0,1-1.65,4,5.94,5.94,0,0,1-4.8,2h-75.15v38.4h100.8q6.75,0,6.75,6.88v37.69a3.71,3.71,0,0,1-1.2,2.69q-.6,4.19-6.15,4.19H1332.12a7,7,0,0,1-4.79-1.58,6.15,6.15,0,0,1-1.79-4.87Z"/></g></g></svg>