<?xml version="1.0" encoding="UTF-8"?>
<svg width="75px" height="74px" viewBox="0 0 75 74" version="1.1" xmlns="http://www.w3.org/2000/svg" xmlns:xlink="http://www.w3.org/1999/xlink">
    <!-- Generator: Sketch 60 (88103) - https://sketch.com -->
    <title>Star</title>
    <desc>Created with Sketch.</desc>
    <g id="9.-Account" stroke="none" stroke-width="1" fill="none" fill-rule="evenodd">
        <g id="9.6.2" transform="translate(-170.000000, -167.000000)" fill="#FBB819">
            <g id="Star" transform="translate(170.000000, 167.000000)">
                <path d="M69.5103039,29.1847137 C70.8614782,27.8520225 71.3384919,25.8961208 70.7555238,24.0803161 C70.1724099,22.2645114 68.6502802,20.9660334 66.7830333,20.6915907 L50.455554,18.2909179 C50.1350673,18.2438748 49.8580117,18.040218 49.7146016,17.7461617 L42.4127803,2.7756904 C41.5778242,1.06355749 39.8869252,0 38,0 C36.1130811,0 34.4221821,1.06355749 33.5872261,2.7756904 L26.2854048,17.7463092 C26.1418489,18.040218 25.864939,18.2438748 25.5443066,18.2910653 L9.21711875,20.6915907 C7.3498719,20.9660334 5.82788791,22.2645114 5.24462832,24.0803161 C4.66136873,25.8961208 5.13852813,27.8520225 6.4898482,29.1847137 L18.3044256,40.8376879 C18.5363012,41.0665622 18.6422556,41.3961588 18.5874566,41.7192667 L15.7983915,58.1734391 C15.4795079,60.0553106 16.2294964,61.9212553 17.7559984,63.043506 C19.2825004,64.1660517 21.2686727,64.3110153 22.9385849,63.4228002 L37.5420817,55.6542 C37.828902,55.501568 38.1712501,55.501568 38.4582161,55.6542 L53.0618587,63.4228002 C53.788237,63.809173 54.5742237,64 55.3564212,64 C56.3722431,64 57.3816524,63.6779243 58.244008,63.0433586 C59.77051,61.9209603 60.5206442,60.0548682 60.2016149,58.1732916 L57.4125497,41.7191193 C57.3578964,41.3960113 57.4637051,41.0664147 57.6955807,40.8375404 L69.5103039,29.1847137 Z M53.5327512,42.3927647 L56.3218164,58.847232 C56.4150913,59.3978869 56.0791559,59.7118517 55.9303533,59.8211274 C55.7814049,59.9302556 55.3823633,60.1569178 54.893836,59.8967798 L40.2901934,52.1281795 C39.5732884,51.7469681 38.7868644,51.5561413 38.0002947,51.5561413 C37.2137249,51.5561413 36.4271552,51.7469681 35.7103959,52.128032 L21.1068991,59.8964848 C20.6180803,60.1564754 20.2191844,59.9301081 20.0703818,59.8208324 C19.9215792,59.7115568 19.585498,59.397592 19.6789187,58.846937 L22.4679839,42.3927647 C22.7418331,40.777225 22.2129353,39.1296842 21.052683,37.9854603 L9.23810561,26.3324861 C8.84270749,25.9422791 8.93219309,25.4885122 8.98917822,25.3115476 C9.04587187,25.1344355 9.23723115,24.713997 9.78361801,24.633773 L26.1106601,22.2331002 C27.7136766,21.9974423 29.0989546,20.9793057 29.8160054,19.5091719 L37.1178267,4.53855317 C37.3622361,4.03759576 37.8163682,3.98347408 38.0004404,3.98347408 C38.1842211,3.98347408 38.6383533,4.03744829 38.8829084,4.53855317 L38.8829084,4.53870064 L46.1847297,19.5093194 C46.9016347,20.9794532 48.2867669,21.9975897 49.8897835,22.2332477 L66.217117,24.6339205 C66.7635039,24.7141445 66.9547174,25.134583 67.0115568,25.3116951 C67.0683962,25.4888072 67.1580276,25.9427215 66.7624837,26.3326336 L54.9479063,37.9856077 C53.7877997,39.1296842 53.2589019,40.777225 53.5327512,42.3927647 Z" id="Shape" fill-rule="nonzero"></path>
                <path d="M60.1920347,2.38635521 C59.3162075,1.72985756 58.090833,1.93022112 57.454712,2.83380388 L55.3744048,5.78864231 C54.7382838,6.69222507 54.9322833,7.95715109 55.8079653,8.61364874 C56.1560617,8.87436097 56.559006,9 56.9583228,9 C57.564408,9 58.1619323,8.71083555 58.545288,8.16634981 L60.6255952,5.21151139 C61.2617162,4.30777888 61.0677167,3.04285286 60.1920347,2.38635521 Z" id="Path"></path>
                <path d="M19.6255252,5.78846256 L17.5452286,2.83359654 C16.9092559,1.93030484 15.6837425,1.7299394 14.8079198,2.38614369 C13.9323873,3.04264747 13.7382437,4.3075853 14.3743615,5.2111765 L16.4546581,8.16604253 C16.838157,8.7109826 17.4356782,9 18.0419054,9 C18.4413653,9 18.8444527,8.87435979 19.192112,8.61349538 C20.0676445,7.95714134 20.2617881,6.69220351 19.6255252,5.78846256 Z" id="Path"></path>
                <path d="M6.9073424,44.3506927 C6.58603369,43.3244652 5.5239725,42.7626661 4.53495502,43.0961575 L1.30137667,44.1867683 C0.312359189,44.5202597 -0.22863825,45.6228792 0.0926704584,46.6491067 C0.351111389,47.4750947 1.08921534,48 1.88279906,48 C2.07558429,48 2.27171503,47.9688934 2.46505784,47.903642 L5.69863619,46.8130311 C6.68751427,46.4795397 7.22865111,45.3772096 6.9073424,44.3506927 Z" id="Path"></path>
                <path d="M38,66 C36.8954539,66 36,66.9410941 36,68.1019376 L36,71.8980624 C36,73.0589059 36.8954539,74 38,74 C39.1045461,74 40,73.0589059 40,71.8980624 L40,68.1019376 C40,66.9409384 39.1046942,66 38,66 Z" id="Path"></path>
                <path d="M73.6986362,44.1867283 L70.4650578,43.0960645 C69.4764585,42.7628464 68.4139792,43.3242387 68.0926705,44.3508053 C67.7713618,45.3773719 68.3123592,46.4797554 69.3013767,46.813263 L72.534955,47.9039267 C72.7282978,47.9690366 72.9242892,48 73.1170744,48 C73.9107975,48 74.6489015,47.4749246 74.9073424,46.6490412 C75.2286511,45.6226193 74.6875143,44.5202358 73.6986362,44.1867283 Z" id="Path"></path>
            </g>
        </g>
    </g>
</svg>